<svg xmlns="http://www.w3.org/2000/svg" width="148" height="94" viewBox="0 0 148 94"><defs><clipPath id="9xoya"><path fill="#fff" d="M73.525.7c0-.438.35-.7.7-.7.349 0 .611.262.699.7v50.356c0 .437-.35.7-.7.7a.69.69 0 0 1-.7-.7zm-12.24 11.277c-.35 0-.612-.262-.612-.524L59.1 3.497c-.087-.35.175-.7.525-.787h.087c.263 0 .525.175.612.525l1.574 7.955c.088.175 0 .35-.087.525-.088.087-.263.262-.437.262zM45.374 6.994c.262 0 .524.175.612.437L65.045 52.98c.174.35 0 .699-.35.874-.088.087-.175.087-.262.087a.657.657 0 0 1-.612-.437L44.76 7.956a.557.557 0 0 1 0-.525.683.683 0 0 1 .35-.35c.088-.087.175-.087.263-.087zm-13.639 8.218c-.087-.175-.087-.35-.087-.524 0-.175.087-.35.262-.438.088-.087.175-.087.35-.087s.437.087.525.262l11.19 16.436c.087.175.087.35.087.525a.48.48 0 0 1-.262.437c-.087.087-.175.087-.35.087-.174 0-.437-.087-.524-.262zm24.83 43.363a.667.667 0 0 1 .174.437c0 .175-.087.35-.175.437a.668.668 0 0 1-.437.175.668.668 0 0 1-.437-.175L20.37 24.741a.667.667 0 0 1-.175-.437c0-.175.088-.35.175-.437a.668.668 0 0 1 .437-.175c.175 0 .35.088.437.175zM11.102 36.544a.48.48 0 0 1-.262-.437c0-.175 0-.35.087-.525.088-.175.262-.262.525-.262.087 0 .262 0 .35.087l7.693 4.983c.087.088.262.263.262.438 0 .174 0 .35-.087.524-.088.175-.262.262-.525.262-.087 0-.262 0-.35-.087zm116.975 4.983c-.087-.175-.087-.35-.087-.525 0-.175.087-.262.262-.437l7.693-4.983c.088-.088.263-.088.35-.088.175 0 .437.088.525.263.087.175.087.35.087.524a.48.48 0 0 1-.262.438l-7.694 4.983c-.087.087-.262.087-.349.087-.175 0-.437-.087-.525-.262zm19.059 21.681c.349 0 .612.175.612.525.087.175 0 .35-.088.525a.48.48 0 0 1-.437.262l-15.212 2.71h-.087c-.263 0-.525-.175-.612-.525-.088-.175 0-.35.087-.524a.48.48 0 0 1 .437-.263l15.212-2.71zM15.911 65.656c.175.088.35.175.35.262.087.175.087.35.087.525 0 .262-.262.525-.612.525h-.087L.525 64.258a.48.48 0 0 1-.438-.263C0 63.82 0 63.645 0 63.471c0-.263.262-.525.612-.525h.087l15.212 2.71zM49.57 71.69c.175 0 .262.087.437.262.087.175.087.35.087.524 0 .263-.262.525-.612.525h-.087l-20.283-3.584c-.35-.088-.612-.437-.524-.787 0-.263.262-.525.612-.525h.087zm1.486-4.809c.175 0 .263.088.35.263a.558.558 0 0 1 0 .524.658.658 0 0 1-.612.437.31.31 0 0 1-.131-.043c-.044-.022-.087-.044-.131-.044L4.372 49.832c-.176 0-.263-.174-.35-.35a.558.558 0 0 1 0-.524.657.657 0 0 1 .612-.437c.043 0 .087.022.13.044a.31.31 0 0 0 .132.043zm2.36-4.458a.652.652 0 0 1 .263.262c0 .175 0 .35-.087.524-.088.175-.262.263-.525.263-.087 0-.262 0-.35-.088L28.151 47.472c-.262-.175-.35-.612-.175-.874.088-.175.262-.263.525-.263.087 0 .262.088.35.175zm66.706-15.824c.088.175.088.35.088.524 0 .175-.088.35-.263.35l-23.604 15.3c-.088.087-.263.087-.35.087-.175 0-.437-.088-.525-.263-.174-.262-.087-.699.175-.874l23.605-15.3c.087-.087.262-.087.35-.087.175 0 .437.088.524.263zm-71.076-7.694c.174 0 .437.088.524.262l10.928 16.087c.175.262.088.7-.175.874-.087.087-.174.087-.35.087-.174 0-.436-.087-.524-.262L48.521 39.866c-.175-.262-.087-.7.175-.874.087-.088.175-.088.35-.088zm13.9-20.02c.262 0 .525.262.612.524l6.382 32.085c.088.35-.175.7-.524.787h-.088c-.262 0-.525-.175-.612-.524L62.334 19.67c-.087-.175 0-.35.087-.525.088-.087.263-.262.438-.262zm56.215 49.133h.087c.35 0 .612.262.612.524.087.35-.175.7-.525.787l-19.321 3.41h-.087c-.262 0-.525-.175-.612-.525-.087-.175 0-.35.087-.524a.48.48 0 0 1 .438-.263zm25.265-19.059a.554.554 0 0 1 0 .525c-.087.175-.175.35-.35.35L98.966 67.58c-.176.087-.263.087-.35.087-.438 0-.7-.262-.7-.612 0-.262.175-.524.437-.612l45.199-17.835c.087-.087.175-.087.262-.087.262 0 .525.175.612.437zm-16.785-25.266c.175 0 .35.088.437.175.262.262.262.7 0 .962L93.283 59.012a.668.668 0 0 1-.437.175.668.668 0 0 1-.437-.175.686.686 0 0 1 0-.962l34.795-34.183a.666.666 0 0 1 .437-.175zm-22.119 7.956c-.088.175-.35.262-.525.262-.175 0-.262 0-.349-.087-.088-.088-.263-.263-.263-.437-.087-.175 0-.35.088-.525l11.19-16.523c.088-.175.262-.263.525-.263.087 0 .262 0 .349.088a.481.481 0 0 1 .263.437c.087.175 0 .35-.088.525zm-5.508 7.78c0 .176 0 .35-.174.525L89.26 55.603c-.087.174-.35.262-.524.262-.088 0-.263 0-.35-.088-.088-.087-.262-.262-.262-.437-.088-.175 0-.35.087-.524l10.666-15.65c.087-.174.262-.262.524-.262.088 0 .263 0 .35.088.087.087.262.262.262.437zm3.104-32.39a.314.314 0 0 0 .132.043c.349.175.524.525.437.787l-18.884 45.2a.657.657 0 0 1-.612.436c-.044 0-.088-.022-.131-.043a.31.31 0 0 0-.132-.044c-.35-.175-.524-.525-.35-.874L102.376 7.43a.658.658 0 0 1 .612-.437c.044 0 .088.022.131.044zm-16.13 4.94a1.926 1.926 0 0 1-.218-.132c-.066-.043-.132-.087-.22-.131-.087-.175-.087-.35-.087-.525l1.574-7.955c0-.263.262-.525.612-.525h.087c.35.088.612.437.525.787l-1.574 7.956c0 .262-.262.524-.612.524zm-1.4 6.993a.48.48 0 0 1 .438.262c.087.088.175.263.087.525L79.82 51.581c0 .262-.263.524-.612.524h-.088a.481.481 0 0 1-.437-.262c-.087-.175-.087-.35-.087-.525l6.294-31.822c0-.263.263-.525.612-.525zm-1.53 49.23L95 79.141 84.058 90.084l-3.429-3.429L74 93.285l-6.63-6.63-3.428 3.429L53 79.142 63.942 68.2l3.429 3.43L74 65l6.628 6.63zM74 66.413l-5.922 5.922L74 78.258l5.922-5.922zm6.63 6.63l-5.923 5.922.177.176-.177.177 5.922 5.922 6.099-6.099zm3.428 15.626l9.528-9.528-9.528-9.527-2.722 2.721 6.806 6.806-6.806 6.806zm-4.136-2.722L74 80.026l-5.922 5.922L74 91.87zM67.371 73.043l-6.099 6.1 6.099 6.098 5.922-5.922-.176-.177.176-.176zM63.94 88.67l2.723-2.722-6.806-6.806 6.806-6.806-2.722-2.722-9.528 9.528z"/></clipPath></defs><g><g><path fill="#faf6f0" d="M73.525.7c0-.438.35-.7.7-.7.349 0 .611.262.699.7v50.356c0 .437-.35.7-.7.7a.69.69 0 0 1-.7-.7zm-12.24 11.277c-.35 0-.612-.262-.612-.524L59.1 3.497c-.087-.35.175-.7.525-.787h.087c.263 0 .525.175.612.525l1.574 7.955c.088.175 0 .35-.087.525-.088.087-.263.262-.437.262zM45.374 6.994c.262 0 .524.175.612.437L65.045 52.98c.174.35 0 .699-.35.874-.088.087-.175.087-.262.087a.657.657 0 0 1-.612-.437L44.76 7.956a.557.557 0 0 1 0-.525.683.683 0 0 1 .35-.35c.088-.087.175-.087.263-.087zm-13.639 8.218c-.087-.175-.087-.35-.087-.524 0-.175.087-.35.262-.438.088-.087.175-.087.35-.087s.437.087.525.262l11.19 16.436c.087.175.087.35.087.525a.48.48 0 0 1-.262.437c-.087.087-.175.087-.35.087-.174 0-.437-.087-.524-.262zm24.83 43.363a.667.667 0 0 1 .174.437c0 .175-.087.35-.175.437a.668.668 0 0 1-.437.175.668.668 0 0 1-.437-.175L20.37 24.741a.667.667 0 0 1-.175-.437c0-.175.088-.35.175-.437a.668.668 0 0 1 .437-.175c.175 0 .35.088.437.175zM11.102 36.544a.48.48 0 0 1-.262-.437c0-.175 0-.35.087-.525.088-.175.262-.262.525-.262.087 0 .262 0 .35.087l7.693 4.983c.087.088.262.263.262.438 0 .174 0 .35-.087.524-.088.175-.262.262-.525.262-.087 0-.262 0-.35-.087zm116.975 4.983c-.087-.175-.087-.35-.087-.525 0-.175.087-.262.262-.437l7.693-4.983c.088-.088.263-.088.35-.088.175 0 .437.088.525.263.087.175.087.35.087.524a.48.48 0 0 1-.262.438l-7.694 4.983c-.087.087-.262.087-.349.087-.175 0-.437-.087-.525-.262zm19.059 21.681c.349 0 .612.175.612.525.087.175 0 .35-.088.525a.48.48 0 0 1-.437.262l-15.212 2.71h-.087c-.263 0-.525-.175-.612-.525-.088-.175 0-.35.087-.524a.48.48 0 0 1 .437-.263l15.212-2.71zM15.911 65.656c.175.088.35.175.35.262.087.175.087.35.087.525 0 .262-.262.525-.612.525h-.087L.525 64.258a.48.48 0 0 1-.438-.263C0 63.82 0 63.645 0 63.471c0-.263.262-.525.612-.525h.087l15.212 2.71zM49.57 71.69c.175 0 .262.087.437.262.087.175.087.35.087.524 0 .263-.262.525-.612.525h-.087l-20.283-3.584c-.35-.088-.612-.437-.524-.787 0-.263.262-.525.612-.525h.087zm1.486-4.809c.175 0 .263.088.35.263a.558.558 0 0 1 0 .524.658.658 0 0 1-.612.437.31.31 0 0 1-.131-.043c-.044-.022-.087-.044-.131-.044L4.372 49.832c-.176 0-.263-.174-.35-.35a.558.558 0 0 1 0-.524.657.657 0 0 1 .612-.437c.043 0 .087.022.13.044a.31.31 0 0 0 .132.043zm2.36-4.458a.652.652 0 0 1 .263.262c0 .175 0 .35-.087.524-.088.175-.262.263-.525.263-.087 0-.262 0-.35-.088L28.151 47.472c-.262-.175-.35-.612-.175-.874.088-.175.262-.263.525-.263.087 0 .262.088.35.175zm66.706-15.824c.088.175.088.35.088.524 0 .175-.088.35-.263.35l-23.604 15.3c-.088.087-.263.087-.35.087-.175 0-.437-.088-.525-.263-.174-.262-.087-.699.175-.874l23.605-15.3c.087-.087.262-.087.35-.087.175 0 .437.088.524.263zm-71.076-7.694c.174 0 .437.088.524.262l10.928 16.087c.175.262.088.7-.175.874-.087.087-.174.087-.35.087-.174 0-.436-.087-.524-.262L48.521 39.866c-.175-.262-.087-.7.175-.874.087-.088.175-.088.35-.088zm13.9-20.02c.262 0 .525.262.612.524l6.382 32.085c.088.35-.175.7-.524.787h-.088c-.262 0-.525-.175-.612-.524L62.334 19.67c-.087-.175 0-.35.087-.525.088-.087.263-.262.438-.262zm56.215 49.133h.087c.35 0 .612.262.612.524.087.35-.175.7-.525.787l-19.321 3.41h-.087c-.262 0-.525-.175-.612-.525-.087-.175 0-.35.087-.524a.48.48 0 0 1 .438-.263zm25.265-19.059a.554.554 0 0 1 0 .525c-.087.175-.175.35-.35.35L98.966 67.58c-.176.087-.263.087-.35.087-.438 0-.7-.262-.7-.612 0-.262.175-.524.437-.612l45.199-17.835c.087-.087.175-.087.262-.087.262 0 .525.175.612.437zm-16.785-25.266c.175 0 .35.088.437.175.262.262.262.7 0 .962L93.283 59.012a.668.668 0 0 1-.437.175.668.668 0 0 1-.437-.175.686.686 0 0 1 0-.962l34.795-34.183a.666.666 0 0 1 .437-.175zm-22.119 7.956c-.088.175-.35.262-.525.262-.175 0-.262 0-.349-.087-.088-.088-.263-.263-.263-.437-.087-.175 0-.35.088-.525l11.19-16.523c.088-.175.262-.263.525-.263.087 0 .262 0 .349.088a.481.481 0 0 1 .263.437c.087.175 0 .35-.088.525zm-5.508 7.78c0 .176 0 .35-.174.525L89.26 55.603c-.087.174-.35.262-.524.262-.088 0-.263 0-.35-.088-.088-.087-.262-.262-.262-.437-.088-.175 0-.35.087-.524l10.666-15.65c.087-.174.262-.262.524-.262.088 0 .263 0 .35.088.087.087.262.262.262.437zm3.104-32.39a.314.314 0 0 0 .132.043c.349.175.524.525.437.787l-18.884 45.2a.657.657 0 0 1-.612.436c-.044 0-.088-.022-.131-.043a.31.31 0 0 0-.132-.044c-.35-.175-.524-.525-.35-.874L102.376 7.43a.658.658 0 0 1 .612-.437c.044 0 .088.022.131.044zm-16.13 4.94a1.926 1.926 0 0 1-.218-.132c-.066-.043-.132-.087-.22-.131-.087-.175-.087-.35-.087-.525l1.574-7.955c0-.263.262-.525.612-.525h.087c.35.088.612.437.525.787l-1.574 7.956c0 .262-.262.524-.612.524zm-1.4 6.993a.48.48 0 0 1 .438.262c.087.088.175.263.087.525L79.82 51.581c0 .262-.263.524-.612.524h-.088a.481.481 0 0 1-.437-.262c-.087-.175-.087-.35-.087-.525l6.294-31.822c0-.263.263-.525.612-.525zm-1.53 49.23L95 79.141 84.058 90.084l-3.429-3.429L74 93.285l-6.63-6.63-3.428 3.429L53 79.142 63.942 68.2l3.429 3.43L74 65l6.628 6.63zM74 66.413l-5.922 5.922L74 78.258l5.922-5.922zm6.63 6.63l-5.923 5.922.177.176-.177.177 5.922 5.922 6.099-6.099zm3.428 15.626l9.528-9.528-9.528-9.527-2.722 2.721 6.806 6.806-6.806 6.806zm-4.136-2.722L74 80.026l-5.922 5.922L74 91.87zM67.371 73.043l-6.099 6.1 6.099 6.098 5.922-5.922-.176-.177.176-.176zM63.94 88.67l2.723-2.722-6.806-6.806 6.806-6.806-2.722-2.722-9.528 9.528z"/><path fill="none" stroke="#fff" stroke-miterlimit="20" stroke-width="2" d="M73.525.7c0-.438.35-.7.7-.7.349 0 .611.262.699.7v50.356c0 .437-.35.7-.7.7a.69.69 0 0 1-.7-.7zm-12.24 11.277c-.35 0-.612-.262-.612-.524L59.1 3.497c-.087-.35.175-.7.525-.787h.087c.263 0 .525.175.612.525l1.574 7.955c.088.175 0 .35-.087.525-.088.087-.263.262-.437.262zM45.374 6.994c.262 0 .524.175.612.437L65.045 52.98c.174.35 0 .699-.35.874-.088.087-.175.087-.262.087a.657.657 0 0 1-.612-.437L44.76 7.956a.557.557 0 0 1 0-.525.683.683 0 0 1 .35-.35c.088-.087.175-.087.263-.087zm-13.639 8.218c-.087-.175-.087-.35-.087-.524 0-.175.087-.35.262-.438.088-.087.175-.087.35-.087s.437.087.525.262l11.19 16.436c.087.175.087.35.087.525a.48.48 0 0 1-.262.437c-.087.087-.175.087-.35.087-.174 0-.437-.087-.524-.262zm24.83 43.363a.667.667 0 0 1 .174.437c0 .175-.087.35-.175.437a.668.668 0 0 1-.437.175.668.668 0 0 1-.437-.175L20.37 24.741a.667.667 0 0 1-.175-.437c0-.175.088-.35.175-.437a.668.668 0 0 1 .437-.175c.175 0 .35.088.437.175zM11.102 36.544a.48.48 0 0 1-.262-.437c0-.175 0-.35.087-.525.088-.175.262-.262.525-.262.087 0 .262 0 .35.087l7.693 4.983c.087.088.262.263.262.438 0 .174 0 .35-.087.524-.088.175-.262.262-.525.262-.087 0-.262 0-.35-.087zm116.975 4.983c-.087-.175-.087-.35-.087-.525 0-.175.087-.262.262-.437l7.693-4.983c.088-.088.263-.088.35-.088.175 0 .437.088.525.263.087.175.087.35.087.524a.48.48 0 0 1-.262.438l-7.694 4.983c-.087.087-.262.087-.349.087-.175 0-.437-.087-.525-.262zm19.059 21.681c.349 0 .612.175.612.525.087.175 0 .35-.088.525a.48.48 0 0 1-.437.262l-15.212 2.71h-.087c-.263 0-.525-.175-.612-.525-.088-.175 0-.35.087-.524a.48.48 0 0 1 .437-.263l15.212-2.71zM15.911 65.656c.175.088.35.175.35.262.087.175.087.35.087.525 0 .262-.262.525-.612.525h-.087L.525 64.258a.48.48 0 0 1-.438-.263C0 63.82 0 63.645 0 63.471c0-.263.262-.525.612-.525h.087l15.212 2.71zM49.57 71.69c.175 0 .262.087.437.262.087.175.087.35.087.524 0 .263-.262.525-.612.525h-.087l-20.283-3.584c-.35-.088-.612-.437-.524-.787 0-.263.262-.525.612-.525h.087zm1.486-4.809c.175 0 .263.088.35.263a.558.558 0 0 1 0 .524.658.658 0 0 1-.612.437.31.31 0 0 1-.131-.043c-.044-.022-.087-.044-.131-.044L4.372 49.832c-.176 0-.263-.174-.35-.35a.558.558 0 0 1 0-.524.657.657 0 0 1 .612-.437c.043 0 .087.022.13.044a.31.31 0 0 0 .132.043zm2.36-4.458a.652.652 0 0 1 .263.262c0 .175 0 .35-.087.524-.088.175-.262.263-.525.263-.087 0-.262 0-.35-.088L28.151 47.472c-.262-.175-.35-.612-.175-.874.088-.175.262-.263.525-.263.087 0 .262.088.35.175zm66.706-15.824c.088.175.088.35.088.524 0 .175-.088.35-.263.35l-23.604 15.3c-.088.087-.263.087-.35.087-.175 0-.437-.088-.525-.263-.174-.262-.087-.699.175-.874l23.605-15.3c.087-.087.262-.087.35-.087.175 0 .437.088.524.263zm-71.076-7.694c.174 0 .437.088.524.262l10.928 16.087c.175.262.088.7-.175.874-.087.087-.174.087-.35.087-.174 0-.436-.087-.524-.262L48.521 39.866c-.175-.262-.087-.7.175-.874.087-.088.175-.088.35-.088zm13.9-20.02c.262 0 .525.262.612.524l6.382 32.085c.088.35-.175.7-.524.787h-.088c-.262 0-.525-.175-.612-.524L62.334 19.67c-.087-.175 0-.35.087-.525.088-.087.263-.262.438-.262zm56.215 49.133h.087c.35 0 .612.262.612.524.087.35-.175.7-.525.787l-19.321 3.41h-.087c-.262 0-.525-.175-.612-.525-.087-.175 0-.35.087-.524a.48.48 0 0 1 .438-.263zm25.265-19.059a.554.554 0 0 1 0 .525c-.087.175-.175.35-.35.35L98.966 67.58c-.176.087-.263.087-.35.087-.438 0-.7-.262-.7-.612 0-.262.175-.524.437-.612l45.199-17.835c.087-.087.175-.087.262-.087.262 0 .525.175.612.437zm-16.785-25.266c.175 0 .35.088.437.175.262.262.262.7 0 .962L93.283 59.012a.668.668 0 0 1-.437.175.668.668 0 0 1-.437-.175.686.686 0 0 1 0-.962l34.795-34.183a.666.666 0 0 1 .437-.175zm-22.119 7.956c-.088.175-.35.262-.525.262-.175 0-.262 0-.349-.087-.088-.088-.263-.263-.263-.437-.087-.175 0-.35.088-.525l11.19-16.523c.088-.175.262-.263.525-.263.087 0 .262 0 .349.088a.481.481 0 0 1 .263.437c.087.175 0 .35-.088.525zm-5.508 7.78c0 .176 0 .35-.174.525L89.26 55.603c-.087.174-.35.262-.524.262-.088 0-.263 0-.35-.088-.088-.087-.262-.262-.262-.437-.088-.175 0-.35.087-.524l10.666-15.65c.087-.174.262-.262.524-.262.088 0 .263 0 .35.088.087.087.262.262.262.437zm3.104-32.39a.314.314 0 0 0 .132.043c.349.175.524.525.437.787l-18.884 45.2a.657.657 0 0 1-.612.436c-.044 0-.088-.022-.131-.043a.31.31 0 0 0-.132-.044c-.35-.175-.524-.525-.35-.874L102.376 7.43a.658.658 0 0 1 .612-.437c.044 0 .088.022.131.044zm-16.13 4.94a1.926 1.926 0 0 1-.218-.132c-.066-.043-.132-.087-.22-.131-.087-.175-.087-.35-.087-.525l1.574-7.955c0-.263.262-.525.612-.525h.087c.35.088.612.437.525.787l-1.574 7.956c0 .262-.262.524-.612.524zm-1.4 6.993a.48.48 0 0 1 .438.262c.087.088.175.263.087.525L79.82 51.581c0 .262-.263.524-.612.524h-.088a.481.481 0 0 1-.437-.262c-.087-.175-.087-.35-.087-.525l6.294-31.822c0-.263.263-.525.612-.525zm-1.53 49.23L95 79.141 84.058 90.084l-3.429-3.429L74 93.285l-6.63-6.63-3.428 3.429L53 79.142 63.942 68.2l3.429 3.43L74 65l6.628 6.63zM74 66.413l-5.922 5.922L74 78.258l5.922-5.922zm6.63 6.63l-5.923 5.922.177.176-.177.177 5.922 5.922 6.099-6.099zm3.428 15.626l9.528-9.528-9.528-9.527-2.722 2.721 6.806 6.806-6.806 6.806zm-4.136-2.722L74 80.026l-5.922 5.922L74 91.87zM67.371 73.043l-6.099 6.1 6.099 6.098 5.922-5.922-.176-.177.176-.176zM63.94 88.67l2.723-2.722-6.806-6.806 6.806-6.806-2.722-2.722-9.528 9.528z" clip-path="url(&quot;#9xoya&quot;)"/></g></g></svg>